<svg width="20" height="20" viewBox="0 0 20 20" fill="none" xmlns="http://www.w3.org/2000/svg">
<path fill-rule="evenodd" clip-rule="evenodd" d="M3.20729 0.0646758C2.87005 0.155671 2.55615 0.339105 2.29368 0.598577C2.01312 0.875975 1.87916 1.08515 1.74777 1.45104C1.65829 1.70024 1.65689 1.72965 1.63736 3.78847L1.61755 5.87358L1.4616 5.92033C0.989994 6.06166 0.428603 6.53269 0.218144 6.96364C0.033457 7.34172 0.00051194 7.54242 5.09318e-06 8.29221C-0.00057973 9.13682 0.0487794 9.31811 0.365676 9.63553C0.627638 9.89797 0.901023 10.0023 1.32662 10.0023H1.63704L1.63771 13.1949C1.63845 16.6917 1.63903 16.7012 1.86859 17.1686C2.10307 17.6459 2.61916 18.0968 3.08924 18.2352L3.31342 18.3012L3.3135 18.6091C3.31354 18.9673 3.36395 19.1669 3.51897 19.4227C3.65519 19.6475 3.8752 19.8276 4.13385 19.9261C4.30727 19.9921 4.44268 20 5.39836 20C6.66645 20 6.77639 19.9766 7.11914 19.6332C7.38114 19.3708 7.48528 19.097 7.48528 18.6707V18.3598H9.98053H12.4758V18.6707C12.4758 19.097 12.5799 19.3708 12.8419 19.6332C13.1847 19.9766 13.2946 20 14.5627 20C15.5184 20 15.6538 19.9921 15.8272 19.9261C16.0858 19.8276 16.3059 19.6475 16.4421 19.4227C16.5971 19.1669 16.6475 18.9673 16.6476 18.6091L16.6476 18.3012L16.8718 18.2352C17.3419 18.0968 17.858 17.6459 18.0925 17.1686C18.322 16.7012 18.3226 16.6917 18.3233 13.1949L18.324 10.0023H18.6344C19.2022 10.0023 19.6599 9.73157 19.8417 9.28815C19.8876 9.17615 19.9421 9.05403 19.9628 9.01673C20.0104 8.93101 20.0133 7.49036 19.9658 7.51973C19.9467 7.53156 19.9189 7.47548 19.9041 7.39511C19.794 6.79782 19.1415 6.11275 18.4995 5.92033L18.3435 5.87358L18.3237 3.78847C18.3042 1.72965 18.3028 1.70024 18.2133 1.45104C18.0819 1.08515 17.9479 0.875975 17.6674 0.598577C17.3986 0.332857 17.0891 0.154577 16.7371 0.0627231C16.4117 -0.0221403 3.52224 -0.0203048 3.20729 0.0646758ZM5.04072 1.75628C4.62042 1.90242 4.34762 2.18978 4.2236 2.61702C4.05537 3.19681 4.39289 3.84631 4.976 4.06486C5.18482 4.14312 5.25718 4.14425 9.98053 4.14425C14.7039 4.14425 14.7762 4.14312 14.9851 4.06486C15.268 3.95879 15.5268 3.72333 15.6599 3.45085C15.7488 3.26883 15.7685 3.17588 15.7693 2.93476C15.7709 2.42937 15.5121 2.02165 15.0523 1.80572L14.8346 1.7034L10.039 1.69462C5.50409 1.68626 5.23242 1.68962 5.04072 1.75628ZM4.32723 5.0576C3.93111 5.14558 3.64252 5.37069 3.46649 5.72893L3.37202 5.92119V8.34251V10.7638L3.46536 10.9467C3.5799 11.1712 3.82077 11.4105 4.05431 11.5319L4.22976 11.623H9.98053H15.7313L15.9067 11.5319C16.1403 11.4105 16.3811 11.1712 16.4957 10.9467L16.589 10.7638V8.34251V5.92119L16.4946 5.72893C16.3116 5.35659 15.9995 5.1243 15.5767 5.04604C15.2313 4.98207 4.61812 4.993 4.32723 5.0576ZM0.0158733 8.28393C0.0158733 8.70278 0.0216046 8.87415 0.0286225 8.6647C0.0356014 8.45526 0.0356014 8.1126 0.0286225 7.90316C0.0216046 7.69371 0.0158733 7.86508 0.0158733 8.28393ZM4.96496 13.4399C4.6892 13.5493 4.43114 13.7882 4.30115 14.0543C4.08118 14.5047 4.18223 15.0876 4.54295 15.449C4.90367 15.8103 5.48565 15.9115 5.9353 15.6912C6.6939 15.3194 6.86201 14.302 6.26128 13.7183C6.01363 13.4776 5.80722 13.3885 5.46222 13.3733C5.2325 13.3632 5.12021 13.3782 4.96496 13.4399ZM14.1967 13.4057C14.0243 13.4554 13.8114 13.5944 13.6586 13.7569C13.2317 14.2111 13.2272 14.9259 13.6481 15.405C14.1017 15.9212 14.9262 15.9416 15.4181 15.449C15.9099 14.9563 15.8895 14.1304 15.3742 13.676C15.063 13.4016 14.5887 13.2927 14.1967 13.4057Z" fill="#040404"/>
</svg>
