<svg width="15" height="15" viewBox="0 0 15 15" fill="none" xmlns="http://www.w3.org/2000/svg">
<g clip-path="url(#clip0_122_566)">
<path d="M6.63574 0.0321636C5.20898 0.207945 3.94922 0.732359 2.79785 1.6347C2.49316 1.87494 1.77246 2.61322 1.53516 2.92962C0.75293 3.97259 0.263672 5.11517 0.0673828 6.35736C-0.00878906 6.83783 -0.00878906 8.16205 0.0673828 8.64252C0.307617 10.163 1.00195 11.5663 2.05957 12.6738C3.21387 13.8808 4.62012 14.6279 6.28125 14.9179C6.79102 15.0058 7.87207 15.0263 8.41113 14.956C11.8916 14.5195 14.5928 11.7802 14.9707 8.29974C15.0176 7.87494 14.9941 6.73822 14.9297 6.34564C14.3906 3.02337 11.7422 0.454039 8.4375 0.0438824C8.04199 -0.00299263 6.99316 -0.0117817 6.63574 0.0321636ZM7.76953 3.87298C7.84277 3.92865 8.0625 4.29779 8.62207 5.31146C9.32812 6.58294 9.38379 6.67377 9.44238 6.65033C9.47754 6.63861 9.90234 6.4306 10.3857 6.1933C11.1592 5.81244 11.2822 5.7597 11.4141 5.7597C11.6045 5.75677 11.751 5.85931 11.8213 6.04388C11.8682 6.16986 11.8682 6.17572 11.5166 8.2265C11.3232 9.35443 11.1445 10.3183 11.1211 10.3681C11.0947 10.415 11.0332 10.4853 10.9805 10.5234L10.8838 10.5908H7.5H4.11621L4.01953 10.5234C3.9668 10.4853 3.90527 10.415 3.87891 10.3681C3.85547 10.3212 3.67676 9.3515 3.48047 8.21771L3.12891 6.15521L3.19629 6.01459C3.28711 5.83587 3.44824 5.73334 3.61816 5.75091C3.69141 5.7597 4.03711 5.91205 4.52637 6.15228C4.96289 6.36615 5.38477 6.57123 5.46973 6.60931L5.61914 6.67669L6.3457 5.36712C6.74414 4.64642 7.09863 4.01654 7.13672 3.96673C7.2832 3.76752 7.57617 3.72357 7.76953 3.87298Z" fill="white"/>
</g>
<defs>
<clipPath id="clip0_122_566">
<rect width="15" height="15" fill="white"/>
</clipPath>
</defs>
</svg>
