<svg width="18" height="18" viewBox="0 0 18 18" fill="none" xmlns="http://www.w3.org/2000/svg">
<path fill-rule="evenodd" clip-rule="evenodd" d="M9 2.8125C5.58274 2.8125 2.8125 5.58274 2.8125 9C2.8125 12.4173 5.58274 15.1875 9 15.1875C12.4173 15.1875 15.1875 12.4173 15.1875 9C15.1875 5.58274 12.4173 2.8125 9 2.8125ZM1.6875 9C1.6875 4.96142 4.96142 1.6875 9 1.6875C13.0386 1.6875 16.3125 4.96142 16.3125 9C16.3125 13.0386 13.0386 16.3125 9 16.3125C4.96142 16.3125 1.6875 13.0386 1.6875 9Z" fill="white"/>
<path fill-rule="evenodd" clip-rule="evenodd" d="M3.82784 3.82808C4.04751 3.60841 4.40366 3.60841 4.62333 3.82808L14.1718 13.3765C14.3914 13.5962 14.3914 13.9523 14.1718 14.172C13.9521 14.3917 13.5959 14.3917 13.3763 14.172L3.82784 4.62358C3.60817 4.40391 3.60817 4.04775 3.82784 3.82808Z" fill="white"/>
</svg>
