<svg width="22" height="22" viewBox="0 0 22 22" fill="none" xmlns="http://www.w3.org/2000/svg">
<path d="M14.5219 15.8051C12.7783 17.1602 10.5841 17.7995 8.38587 17.5928C6.18769 17.3861 4.1509 16.3489 2.69022 14.6924C1.22955 13.036 0.454811 10.8848 0.523769 8.67683C0.592728 6.46891 1.50019 4.3703 3.06139 2.8083C4.62259 1.2463 6.72013 0.338371 8.92692 0.269377C11.1337 0.200383 13.2838 0.975514 14.9395 2.43694C16.5951 3.89837 17.6317 5.9362 17.8383 8.13551C18.0449 10.3348 17.406 12.5302 16.0515 14.2747L21.0836 19.2905C21.5096 19.7152 21.5102 20.4048 21.085 20.8303C20.6598 21.2557 19.9701 21.2554 19.5453 20.8295L14.5328 15.8051H14.5219ZM9.20639 15.4577C10.0611 15.4577 10.9075 15.2893 11.6972 14.962C12.4869 14.6348 13.2044 14.1551 13.8088 13.5504C14.4132 12.9457 14.8927 12.2278 15.2198 11.4377C15.5469 10.6476 15.7152 9.80077 15.7152 8.94559C15.7152 8.0904 15.5469 7.24358 15.2198 6.45349C14.8927 5.6634 14.4132 4.9455 13.8088 4.34079C13.2044 3.73608 12.4869 3.2564 11.6972 2.92913C10.9075 2.60186 10.0611 2.43342 9.20639 2.43342C7.48014 2.43342 5.82459 3.11952 4.60395 4.34079C3.3833 5.56206 2.69755 7.21845 2.69755 8.94559C2.69755 10.6727 3.3833 12.3291 4.60395 13.5504C5.82459 14.7716 7.48014 15.4577 9.20639 15.4577Z" fill="#2A3042"/>
</svg>
