<svg width="33" height="33" viewBox="0 0 33 33" fill="none" xmlns="http://www.w3.org/2000/svg">
<path d="M20.6475 17.6028C20.2459 17.1685 19.7948 16.7826 19.3036 16.4531C21.286 14.9204 22.6752 12.7474 23.2344 10.3048C23.2756 10.1283 23.2816 9.94535 23.2519 9.76652C23.2222 9.58769 23.1575 9.41649 23.0614 9.26278C22.9653 9.10907 22.8397 8.97589 22.6919 8.87088C22.5442 8.76588 22.3771 8.69114 22.2003 8.65095C22.0235 8.61076 21.8406 8.60593 21.6619 8.63672C21.4833 8.66751 21.3125 8.73333 21.1594 8.83038C21.0063 8.92743 20.8738 9.0538 20.7697 9.20222C20.6657 9.35064 20.5919 9.51818 20.5528 9.69519C20.2924 10.8378 19.7859 11.9098 19.0686 12.8365C18.3513 13.7632 17.4405 14.5223 16.3997 15.0608V10.0027C16.3912 9.90157 16.371 9.80171 16.3396 9.70516C16.3305 9.62566 16.3146 9.54707 16.2921 9.47027C16.2335 9.34522 16.1561 9.22981 16.0628 9.12802C16.0382 9.09881 16.0258 9.0603 15.9989 9.03328C15.8982 8.94029 15.7841 8.86287 15.6605 8.80357C15.6255 8.78486 15.5994 8.75322 15.5625 8.73757C15.4572 8.70247 15.348 8.68002 15.2374 8.67068C15.1691 8.65069 15.0993 8.63635 15.0287 8.62779L14.129 8.625H14.125C13.8033 8.62346 13.4914 8.73529 13.244 8.94084C12.9966 9.1464 12.8295 9.43254 12.772 9.74903C12.7145 10.0655 12.7704 10.3921 12.9298 10.6716C13.0892 10.951 13.3419 11.1653 13.6436 11.2769V18.0016C11.4647 15.7397 10.0219 12.871 9.50519 9.77312C9.47504 9.59511 9.41012 9.42479 9.31413 9.27186C9.21815 9.11894 9.09299 8.98643 8.9458 8.88188C8.7986 8.77733 8.63226 8.70279 8.45625 8.66253C8.28025 8.62227 8.09805 8.61706 7.92004 8.64722C7.74203 8.67737 7.5717 8.7423 7.41878 8.83828C7.26586 8.93426 7.13334 9.05942 7.02879 9.20661C6.92424 9.35381 6.8497 9.52016 6.80944 9.69616C6.76918 9.87216 6.76398 10.0544 6.79413 10.2324C7.59767 15.0209 10.2679 19.2951 14.219 22.1173C14.2753 22.151 14.3341 22.1806 14.3947 22.2059C14.4424 22.2338 14.4917 22.2587 14.5425 22.2804C14.696 22.3417 14.8594 22.3747 15.0247 22.3777C15.2269 22.3753 15.4261 22.3274 15.6074 22.2377C15.6211 22.2312 15.6368 22.2342 15.6504 22.2274C15.7719 22.1641 15.8832 22.0828 15.9805 21.9863C16.0001 21.9673 16.0132 21.9439 16.0317 21.9237C16.1204 21.8263 16.1944 21.7164 16.2515 21.5976C16.2707 21.5582 16.2881 21.5205 16.3035 21.479C16.3639 21.3273 16.3965 21.166 16.3997 21.0027L16.4003 18.0795C17.2523 18.3297 18.0199 18.8074 18.6206 19.4612L20.8865 21.9319C21.0084 22.0654 21.1555 22.1736 21.3192 22.2502C21.483 22.3268 21.6602 22.3703 21.8409 22.3784C22.0215 22.3864 22.2019 22.3587 22.3718 22.2969C22.5417 22.235 22.6977 22.1403 22.831 22.0181C22.9642 21.8959 23.072 21.7486 23.1483 21.5847C23.2245 21.4208 23.2676 21.2434 23.2752 21.0628C23.2828 20.8822 23.2547 20.7018 23.1925 20.532C23.1303 20.3623 23.0353 20.2065 22.9128 20.0735L20.6475 17.6028ZM19.725 0.375H11.2891C2.82287 0.375 0.375 2.82019 0.375 11.2743V19.7109C0.375 28.1771 2.81952 30.625 11.275 30.625H19.7109C28.1771 30.625 30.625 28.1798 30.625 19.7257V11.2891C30.625 2.82287 28.1805 0.375 19.725 0.375ZM27.875 19.7257C27.875 26.6558 26.6544 27.875 19.7109 27.875H11.275C4.34357 27.875 3.125 26.6544 3.125 19.7109V11.2743C3.125 4.34424 4.34559 3.125 11.2891 3.125H19.725C26.6564 3.125 27.875 4.34559 27.875 11.2891V19.7257Z" fill="black"/>
</svg>
